<svg width="1345" height="931" viewBox="0 0 1345 931" fill="none" xmlns="http://www.w3.org/2000/svg">
<rect width="1344" height="928" transform="translate(0 2)" fill="#023047"/>
<path d="M1344 232.863C1220.29 232.863 1120 128.992 1120 0.862793H1344V232.863Z" fill="#6ED47C"/>
<path d="M896 233.663C1019.71 233.663 1120 337.534 1120 465.663H896V233.663Z" fill="#D5E155"/>
<path d="M448 929.663C324.287 929.663 224 825.792 224 697.663H448V929.663Z" fill="#2D3652"/>
<path d="M112 465.663V349.663C112 285.598 61.8554 233.663 0 233.663V349.663C0 413.727 50.1446 465.663 112 465.663Z" fill="#2D3652"/>
<path d="M1344 464.863H1232C1170.14 464.863 1120 516.798 1120 580.863H1232C1293.86 580.863 1344 528.928 1344 464.863Z" fill="#2D3652"/>
<path d="M448 348.863H560C621.855 348.863 672 296.927 672 232.863H560C498.145 232.863 448 284.798 448 348.863Z" fill="#2D3652"/>
<path d="M336 465.83H448C509.855 465.83 560 413.894 560 349.83H448C386.145 349.83 336 401.765 336 465.83Z" fill="#6ED47C"/>
<path d="M112 928.863L112 813.847C112 749.681 61.8554 697.663 0 697.663L0 812.678C0 876.847 50.1446 928.863 112 928.863Z" fill="#FFC700"/>
<path d="M112 2.46265V117.478C112 181.645 61.8554 233.663 0 233.663V118.647C0 54.4784 50.1446 2.46265 112 2.46265Z" fill="#D5E155"/>
<path d="M1120 0.862793H896V232.863C1019.71 232.863 1120 128.992 1120 0.862793Z" fill="#2D3652"/>
<path d="M896 0.862793H672C548.289 0.862793 448 104.734 448 232.863H672C795.711 232.863 896 128.992 896 0.862793Z" fill="#F07167"/>
<path d="M1120 465.663H896C772.289 465.663 672 569.534 672 697.663H896C1019.71 697.663 1120 593.792 1120 465.663Z" fill="#FF743C"/>
<path d="M895.228 581.663H784.178C722.224 581.663 672 633.599 672 697.663H783.05C845.005 697.663 895.228 645.728 895.228 581.663Z" fill="#2D3652"/>
<path d="M448 465.663H224C100.289 465.663 0 569.534 0 697.663H224C347.711 697.663 448 593.792 448 465.663Z" fill="#F0F1F1"/>
<path d="M223.228 581.663H112.178C50.2244 581.663 0 633.599 0 697.663H111.05C173.005 697.663 223.228 645.728 223.228 581.663Z" fill="#FF743C"/>
<path d="M672 697.663H896C1019.71 697.663 1120 801.534 1120 929.663H896C772.289 929.663 672 825.792 672 697.663Z" fill="#2D3652"/>
<path d="M896 814H1007.43C1069.6 814 1120 865.936 1120 930H1008.57C946.396 930 896 878.064 896 814Z" fill="#6ED47C"/>
<path d="M1232 928.863V813.846C1232 749.681 1282.14 697.663 1344 697.663V812.68C1344 876.846 1293.86 928.863 1232 928.863Z" fill="#2D3652"/>
<path d="M1053.57 696.863C1053.57 658.423 1083.66 627.263 1120.77 627.263C1157.89 627.263 1187.97 658.423 1187.97 696.863C1187.97 735.303 1157.89 766.463 1120.77 766.463C1083.66 766.463 1053.57 735.303 1053.57 696.863Z" fill="#FF743C"/>
<path d="M1087.56 697.263C1087.56 678.044 1102.6 662.463 1121.16 662.463C1139.71 662.463 1154.76 678.044 1154.76 697.263C1154.76 716.482 1139.71 732.063 1121.16 732.063C1102.6 732.063 1087.56 716.482 1087.56 697.263Z" fill="#FFC700"/>
<path d="M581.627 403.663C581.627 384.444 596.671 368.863 615.227 368.863C633.783 368.863 648.827 384.444 648.827 403.663C648.827 422.882 633.783 438.463 615.227 438.463C596.671 438.463 581.627 422.882 581.627 403.663Z" fill="#FF743C"/>
<path d="M357.627 291.663C357.627 272.444 372.671 256.863 391.227 256.863C409.784 256.863 424.827 272.444 424.827 291.663C424.827 310.882 409.784 326.463 391.227 326.463C372.671 326.463 357.627 310.882 357.627 291.663Z" fill="#6ED47C"/>
<path d="M1077.52 220.463C1077.52 201.244 1092.56 185.663 1111.12 185.663C1129.67 185.663 1144.72 201.244 1144.72 220.463C1144.72 239.681 1129.67 255.263 1111.12 255.263C1092.56 255.263 1077.52 239.681 1077.52 220.463Z" fill="#FF743C"/>
<path d="M641.876 870.463C641.876 853.231 655.362 839.263 672 839.263C688.637 839.263 702.124 853.231 702.124 870.463C702.124 887.694 688.637 901.663 672 901.663C655.362 901.663 641.876 887.694 641.876 870.463Z" fill="#FF743C"/>
<path d="M672 348.863C672 284.798 722.145 232.863 784 232.863C845.855 232.863 896 284.798 896 348.863C896 412.927 845.855 464.863 784 464.863H672V348.863Z" fill="#FF743C"/>
<path d="M672 405.662C672 372.526 697.937 345.663 729.932 345.663C761.926 345.663 787.862 372.526 787.862 405.662C787.862 438.8 761.926 465.663 729.932 465.663H672V405.662Z" fill="#FFC700"/>
<path d="M1344 348.863C1344 284.798 1293.86 232.863 1232 232.863C1170.14 232.863 1120 284.798 1120 348.863C1120 412.927 1170.14 464.863 1232 464.863H1344V348.863Z" fill="#FF743C"/>
<path d="M1344 404.862C1344 371.726 1318.06 344.863 1286.07 344.863C1254.07 344.863 1228.14 371.726 1228.14 404.862C1228.14 438 1254.07 464.863 1286.07 464.863H1344V404.862Z" fill="#FFC700"/>
<path d="M224 116.863C224 52.7983 274.145 0.862793 336 0.862793C397.855 0.862793 448 52.7983 448 116.863C448 180.927 397.855 232.863 336 232.863C274.145 232.863 224 180.927 224 116.863Z" fill="#FFC700"/>
<path d="M274.207 117.263C274.207 81.6965 302.046 52.8628 336.386 52.8628C370.726 52.8628 398.566 81.6965 398.566 117.263C398.566 152.829 370.726 181.663 336.386 181.663C302.046 181.663 274.207 152.829 274.207 117.263Z" fill="#2D3652"/>
<path d="M672 581.663C672 645.727 622.028 697.663 560.386 697.663C498.744 697.663 448.772 645.727 448.772 581.663C448.772 517.598 498.744 465.663 560.386 465.663H672V581.663Z" fill="#D5E155"/>
<path d="M224 465.663C285.855 465.663 336 413.727 336 349.663C336 285.598 285.855 233.663 224 233.663C162.145 233.663 112 285.598 112 349.663V465.663H224Z" fill="#FF743C"/>
<path d="M1119 930C1119 801.316 1219.74 697 1344 697V930H1119Z" fill="#6ED47C"/>
<path d="M1229.89 930.126C1229.89 864.734 1281.07 811.726 1344.2 811.726V930.126H1229.89Z" fill="#2D3652"/>
<rect x="448" y="231.726" width="448" height="466.275" fill="#023047"/>
<path d="M456 799C388.068 799 333 753.782 333 698H456V799Z" fill="#6ED47C"/>
<path d="M672 697.663C672 825.792 571.711 929.663 448 929.663V697.663H672Z" fill="#FF743C"/>
</svg>
